<svg width="786" height="1704" viewBox="0 0 786 1704" fill="none" xmlns="http://www.w3.org/2000/svg">
<rect width="786" height="1704" fill="white"/>
<path d="M346.461 1396.27C344.345 1396.76 342.066 1397 339.625 1397C330.999 1397 326.686 1392.56 326.686 1383.69C326.686 1375.47 330.999 1371.37 339.625 1371.37C342.066 1371.37 344.345 1371.61 346.461 1372.1V1374.29C344.182 1373.81 341.985 1373.56 339.869 1373.56C332.952 1373.56 329.493 1376.94 329.493 1383.69C329.493 1391.1 332.952 1394.8 339.869 1394.8C341.985 1394.8 344.182 1394.56 346.461 1394.07V1396.27ZM352.467 1397V1371.37H354.298L354.615 1375.61C357.187 1372.78 360.051 1371.37 363.209 1371.37V1373.42C360.149 1373.42 357.423 1374.91 355.03 1377.88V1397H352.467ZM378.321 1371.37C385.336 1371.37 388.844 1375.25 388.844 1383.01C388.844 1383.56 388.827 1384.14 388.795 1384.74H369.337C369.337 1391.45 372.885 1394.8 379.981 1394.8C382.895 1394.8 385.483 1394.4 387.745 1393.58V1395.78C385.483 1396.59 382.895 1397 379.981 1397C371.176 1397 366.773 1392.63 366.773 1383.89C366.773 1375.54 370.623 1371.37 378.321 1371.37ZM369.337 1382.45H386.378C386.28 1376.49 383.595 1373.51 378.321 1373.51C372.625 1373.51 369.63 1376.49 369.337 1382.45ZM393.971 1389.75C393.971 1384.65 397.356 1382.11 404.127 1382.11C406.52 1382.11 409.075 1382.27 411.793 1382.6V1379.45C411.793 1375.52 409.327 1373.56 404.396 1373.56C401.759 1373.56 399.057 1373.97 396.29 1374.78V1372.59C399.057 1371.77 401.759 1371.37 404.396 1371.37C411.036 1371.37 414.356 1374.02 414.356 1379.32V1397H412.794L412.208 1394.46C409.002 1396.15 405.893 1397 402.882 1397C396.941 1397 393.971 1394.58 393.971 1389.75ZM404.127 1384.3C399.065 1384.3 396.534 1386.1 396.534 1389.68C396.534 1393.09 398.65 1394.8 402.882 1394.8C406.007 1394.8 408.977 1393.97 411.793 1392.31V1384.79C409.075 1384.47 406.52 1384.3 404.127 1384.3ZM422.096 1367.21H423.902L424.366 1371.37H432.057V1373.56H424.586V1389.75C424.586 1393.12 425.823 1394.8 428.297 1394.8H432.057V1397H428.346C424.179 1397 422.096 1394.7 422.096 1390.09V1367.21ZM447.853 1371.37C454.868 1371.37 458.375 1375.25 458.375 1383.01C458.375 1383.56 458.359 1384.14 458.326 1384.74H438.868C438.868 1391.45 442.416 1394.8 449.513 1394.8C452.426 1394.8 455.014 1394.4 457.276 1393.58V1395.78C455.014 1396.59 452.426 1397 449.513 1397C440.707 1397 436.305 1392.63 436.305 1383.89C436.305 1375.54 440.154 1371.37 447.853 1371.37ZM438.868 1382.45H455.909C455.812 1376.49 453.126 1373.51 447.853 1373.51C442.156 1373.51 439.161 1376.49 438.868 1382.45Z" fill="white"/>
<path d="M354.5 1249C362 1244 365.799 1243.94 374 1249C379.75 1244.61 383.859 1243.45 393.5 1249C400.224 1244.16 404.335 1244.73 412 1249C421.253 1242.9 425 1244.5 432 1249" stroke="black"/>
<path d="M354.5 1596C362 1591 365.799 1590.94 374 1596C379.75 1591.61 383.859 1590.45 393.5 1596C400.224 1591.16 404.335 1591.73 412 1596C421.253 1589.9 425 1591.5 432 1596" stroke="black"/>
<path d="M60.5 1114.5C56.5951 1103.7 55.5 1094 49.5 1099.5" stroke="black"/>
<path d="M62.5001 1113.5C62.5001 1113.5 57.5001 1092 64.0001 1091" stroke="black"/>
<path d="M64.4999 1113C63.6326 1103.68 64.0709 1099.64 70 1099" stroke="black"/>
<path d="M209.5 1185.5C205.595 1174.7 204.5 1165 198.5 1170.5" stroke="black"/>
<path d="M211.5 1184.5C211.5 1184.5 206.5 1163 213 1162" stroke="black"/>
<path d="M213.5 1184C212.633 1174.68 213.071 1170.64 219 1170" stroke="black"/>
<path d="M286.5 1097.5C282.595 1086.7 281.5 1077 275.5 1082.5" stroke="black"/>
<path d="M288.5 1096.5C288.5 1096.5 283.5 1075 290 1074" stroke="black"/>
<path d="M290.5 1096C289.633 1086.68 290.071 1082.64 296 1082" stroke="black"/>
<path d="M431.5 1168.5C427.595 1157.7 426.5 1148 420.5 1153.5" stroke="black"/>
<path d="M433.5 1167.5C433.5 1167.5 428.5 1146 435 1145" stroke="black"/>
<path d="M435.5 1167C434.633 1157.68 435.071 1153.64 441 1153" stroke="black"/>
<path d="M503.5 330C517.159 330.79 522.496 334.521 526.482 349C531.105 338.373 534.769 336.558 542.5 337.945" stroke="black"/>
<path d="M562.5 402C576.159 402.79 581.496 406.521 585.482 421C590.105 410.373 593.769 408.558 601.5 409.945" stroke="black"/>
<path d="M662.5 373C669.855 373.582 672.729 376.331 674.875 387C677.364 379.17 679.337 377.832 683.5 378.855" stroke="black"/>
</svg>
