<svg width="328" height="328" viewBox="0 0 328 328" fill="none" xmlns="http://www.w3.org/2000/svg">
<path fill-rule="evenodd" clip-rule="evenodd" d="M104.958 80.0654V152.816L229.598 186.813V46.0682L104.958 80.0654ZM88.5576 152.816C88.5569 156.414 89.7398 159.913 91.924 162.773C94.1082 165.633 97.1725 167.695 100.644 168.642L225.284 202.639C227.719 203.303 230.273 203.396 232.75 202.911C235.226 202.426 237.557 201.376 239.561 199.843C241.565 198.31 243.189 196.335 244.305 194.073C245.421 191.81 246.001 189.32 245.998 186.797V46.0682C245.998 43.5464 245.417 41.0584 244.3 38.7977C243.182 36.5369 241.558 34.5644 239.554 33.0333C237.551 31.5022 235.221 30.4539 232.746 29.9698C230.271 29.4858 227.717 29.579 225.284 30.2422L100.644 64.2394C97.1725 65.1858 94.1082 67.248 91.924 70.1079C89.7398 72.9678 88.5569 76.4668 88.5576 80.0654V152.816Z" fill="black"/>
<path fill-rule="evenodd" clip-rule="evenodd" d="M56.6769 152.522H90.1985V80.3623H56.6277C48.1442 90.4735 43.4983 103.253 43.5073 116.451C43.5163 129.65 48.1797 142.423 56.6769 152.522ZM90.1985 168.922C94.5481 168.922 98.7195 167.194 101.795 164.119C104.871 161.043 106.599 156.872 106.599 152.522V80.3623C106.599 76.0128 104.871 71.8414 101.795 68.7658C98.7195 65.6902 94.5481 63.9623 90.1985 63.9623H53.3477C52.1199 63.9612 50.9047 64.2109 49.7767 64.6959C48.6487 65.181 47.6316 65.8912 46.7877 66.7831C20.5149 94.5155 20.6297 138.172 46.7549 166.036C47.6086 166.942 48.6376 167.665 49.7794 168.161C50.9212 168.658 52.152 168.916 53.3969 168.922H90.1985Z" fill="black"/>
<path fill-rule="evenodd" clip-rule="evenodd" d="M119.206 178.267L78.0423 173.675L62.0031 237.799H105.233L119.206 178.267ZM79.8463 157.39C75.9033 156.949 71.9342 157.952 68.6744 160.214C65.4146 162.475 63.0852 165.842 62.1179 169.69L46.0951 233.814C45.4893 236.232 45.4428 238.757 45.959 241.195C46.4753 243.634 47.5407 245.923 49.0744 247.889C50.6081 249.854 52.5696 251.444 54.8098 252.537C57.0501 253.631 59.5102 254.199 62.0031 254.199H105.233C108.934 254.2 112.526 252.95 115.426 250.652C118.326 248.353 120.363 245.141 121.207 241.538L135.18 182.006C135.711 179.747 135.757 177.4 135.314 175.121C134.871 172.842 133.95 170.684 132.61 168.788C131.271 166.892 129.544 165.302 127.545 164.123C125.545 162.944 123.318 162.203 121.01 161.949L79.8463 157.39ZM305.297 52.8563C306.501 54.666 306.937 56.8796 306.51 59.0107C306.082 61.1418 304.826 63.016 303.017 64.2215L278.417 80.6215C277.523 81.256 276.509 81.7046 275.438 81.9405C274.367 82.1764 273.259 82.195 272.18 81.995C271.101 81.795 270.074 81.3807 269.158 80.7764C268.242 80.1721 267.457 79.3903 266.849 78.4771C266.241 77.5639 265.823 76.538 265.618 75.4602C265.414 74.3823 265.428 73.2744 265.659 72.202C265.891 71.1296 266.335 70.1146 266.966 69.2171C267.597 68.3195 268.401 67.5577 269.332 66.9767L293.932 50.5767C295.742 49.3728 297.955 48.9366 300.086 49.3641C302.217 49.7915 304.092 51.0476 305.297 52.8563ZM265.675 116.439C265.675 114.264 266.539 112.179 268.076 110.641C269.614 109.103 271.7 108.239 273.875 108.239H298.475C300.649 108.239 302.735 109.103 304.273 110.641C305.811 112.179 306.675 114.264 306.675 116.439C306.675 118.614 305.811 120.7 304.273 122.237C302.735 123.775 300.649 124.639 298.475 124.639H273.875C271.7 124.639 269.614 123.775 268.076 122.237C266.539 120.7 265.675 118.614 265.675 116.439ZM267.593 153.011C268.288 152.187 269.138 151.507 270.094 151.012C271.051 150.516 272.097 150.214 273.171 150.122C274.244 150.031 275.326 150.152 276.353 150.479C277.38 150.806 278.332 151.332 279.155 152.027L301.788 171.035C303.362 172.459 304.323 174.438 304.467 176.557C304.612 178.675 303.93 180.766 302.563 182.392C301.197 184.017 299.254 185.049 297.143 185.271C295.031 185.492 292.916 184.887 291.242 183.581L268.61 164.557C266.945 163.16 265.903 161.159 265.713 158.994C265.522 156.829 266.198 154.677 267.593 153.011Z" fill="black"/>
</svg>
